<svg xmlns="http://www.w3.org/2000/svg" viewBox="0 0 33 13" width="264" height="104" shape-rendering="crispEdges"><defs><linearGradient id="g" x1="0" y1="0" x2="33" y2="0" gradientUnits="userSpaceOnUse"><stop offset="0" stop-color="#4C8DFF"/><stop offset="1" stop-color="#2FD4C6"/></linearGradient></defs><g transform="translate(2,2)"><rect x="1" y="2" width="3" height="1" fill="url(#g)"/><rect x="0" y="3" width="1" height="1" fill="url(#g)"/><rect x="4" y="3" width="1" height="1" fill="url(#g)"/><rect x="0" y="4" width="1" height="1" fill="url(#g)"/><rect x="4" y="4" width="1" height="1" fill="url(#g)"/><rect x="0" y="5" width="1" height="1" fill="url(#g)"/><rect x="4" y="5" width="1" height="1" fill="url(#g)"/><rect x="1" y="6" width="4" height="1" fill="url(#g)"/><rect x="4" y="7" width="1" height="1" fill="url(#g)"/><rect x="1" y="8" width="3" height="1" fill="url(#g)"/><rect x="7" y="2" width="4" height="1" fill="url(#g)"/><rect x="6" y="3" width="1" height="1" fill="url(#g)"/><rect x="7" y="4" width="3" height="1" fill="url(#g)"/><rect x="10" y="5" width="1" height="1" fill="url(#g)"/><rect x="6" y="6" width="4" height="1" fill="url(#g)"/><rect x="13" y="2" width="4" height="1" fill="url(#g)"/><rect x="12" y="3" width="1" height="1" fill="url(#g)"/><rect x="13" y="4" width="3" height="1" fill="url(#g)"/><rect x="16" y="5" width="1" height="1" fill="url(#g)"/><rect x="12" y="6" width="4" height="1" fill="url(#g)"/><rect x="18" y="2" width="1" height="1" fill="url(#g)"/><rect x="18" y="3" width="1" height="1" fill="url(#g)"/><rect x="18" y="4" width="1" height="1" fill="url(#g)"/><rect x="20" y="4" width="2" height="1" fill="url(#g)"/><rect x="18" y="5" width="2" height="1" fill="url(#g)"/><rect x="22" y="5" width="1" height="1" fill="url(#g)"/><rect x="18" y="6" width="1" height="1" fill="url(#g)"/><rect x="22" y="6" width="1" height="1" fill="url(#g)"/><rect x="18" y="7" width="1" height="1" fill="url(#g)"/><rect x="22" y="7" width="1" height="1" fill="url(#g)"/><rect x="18" y="8" width="1" height="1" fill="url(#g)"/><rect x="22" y="8" width="1" height="1" fill="url(#g)"/><rect x="24" y="7" width="5" height="1" fill="#34D399"/><rect x="24" y="8" width="5" height="1" fill="#34D399"/></g></svg>
